# xmcd
# 
# Track frame offsets:
#     150
#     15741
#     33768
#     48409
#     67762
#     85769
#     105567
#     119755
#     142365
#     161422
#     178186
#     195310
# 
# Disc length: 2817
# 
# Revision: 1
# Processed by: cddbd v1.5.2PL0 Copyright (c) Steve Scherf et al.
# Submitted via: fre:ac v1.0.17
# 
DISCID=9c0aff0c
DTITLE=Suzanne Vega - Live At Montreaux 2004
DYEAR=2005
DGENRE=Rock
TTITLE0=99.9 F°
TTITLE1=Marlene On The Wall
TTITLE2=Caramel
TTITLE3=Gypsy
TTITLE4=(I'll Never Be Your) Maggie May
TTITLE5=Penitent
TTITLE6=Left Of Center
TTITLE7=The Queen And The Soldier
TTITLE8=Solitude Standing
TTITLE9=Blood Makes Noise
TTITLE10=Luka
TTITLE11=Tom's Diner
EXTD=
EXTT0=
EXTT1=
EXTT2=
EXTT3=
EXTT4=
EXTT5=
EXTT6=
EXTT7=
EXTT8=
EXTT9=
EXTT10=
EXTT11=
PLAYORDER=
